<svg width="50" height="50" viewBox="0 0 50 50" fill="none" xmlns="http://www.w3.org/2000/svg">
<path fill-rule="evenodd" clip-rule="evenodd" d="M20.3709 43.75H29.6292C36.1313 43.75 39.3834 43.75 41.7188 42.2187C42.7268 41.5586 43.5947 40.7062 44.273 39.7104C45.8334 37.4187 45.8334 34.225 45.8334 27.8416C45.8334 21.4583 45.8334 18.2646 44.273 15.9729C43.5947 14.977 42.7268 14.1247 41.7188 13.4646C40.2188 12.4791 38.3397 12.1271 35.4626 12.0021C34.0897 12.0021 32.9084 10.9812 32.6397 9.65831C32.4343 8.68928 31.9006 7.82088 31.1289 7.19987C30.3572 6.57886 29.3948 6.24333 28.4042 6.24997H21.5959C19.5376 6.24997 17.7647 7.67706 17.3605 9.65831C17.0917 10.9812 15.9105 12.0021 14.5376 12.0021C11.6626 12.1271 9.78341 12.4812 8.28133 13.4646C7.27412 14.1249 6.4069 14.9772 5.72925 15.9729C4.16675 18.2646 4.16675 21.4562 4.16675 27.8416C4.16675 34.2271 4.16675 37.4166 5.72716 39.7104C6.40216 40.7021 7.26883 41.5541 8.28133 42.2187C10.6167 43.75 13.8688 43.75 20.3709 43.75ZM25.0001 19.3187C20.2063 19.3187 16.3188 23.1333 16.3188 27.8396C16.3188 32.5458 20.2084 36.3666 25.0001 36.3666C29.7917 36.3666 33.6813 32.55 33.6813 27.8437C33.6813 23.1375 29.7917 19.3187 25.0001 19.3187ZM25.0001 22.7271C22.1251 22.7271 19.7917 25.0166 19.7917 27.8416C19.7917 30.6646 22.1251 32.9541 25.0001 32.9541C27.8751 32.9541 30.2084 30.6646 30.2084 27.8416C30.2084 25.0187 27.8751 22.7271 25.0001 22.7271ZM34.8376 21.0229C34.8376 20.0812 35.6147 19.3187 36.5751 19.3187H38.8876C39.8459 19.3187 40.6251 20.0812 40.6251 21.0229C40.6207 21.4789 40.4354 21.9146 40.11 22.2341C39.7846 22.5536 39.3457 22.7309 38.8897 22.7271H36.5751C36.3491 22.7293 36.1249 22.6869 35.9153 22.6025C35.7056 22.518 35.5147 22.3931 35.3534 22.2348C35.192 22.0766 35.0634 21.8881 34.9749 21.6802C34.8864 21.4722 34.8398 21.2489 34.8376 21.0229Z" fill="#EEA1CD"/>
</svg>
