<svg width="50" height="50" viewBox="0 0 50 50" fill="none" xmlns="http://www.w3.org/2000/svg">
<path fill-rule="evenodd" clip-rule="evenodd" d="M6.60841 10.775C4.16675 13.2146 4.16675 17.1438 4.16675 25C4.16675 32.8563 4.16675 36.7855 6.60841 39.225C9.05008 41.6646 12.9772 41.6667 20.8334 41.6667H29.1667C37.023 41.6667 40.9522 41.6667 43.3918 39.225C45.8313 36.7834 45.8334 32.8563 45.8334 25C45.8334 17.1438 45.8334 13.2146 43.3918 10.775C40.9501 8.33546 37.023 8.33337 29.1667 8.33337H20.8334C12.9772 8.33337 9.048 8.33337 6.60841 10.775ZM38.7001 15.6667C38.9652 15.985 39.093 16.3956 39.0555 16.8081C39.018 17.2207 38.8182 17.6014 38.5001 17.8667L33.9251 21.6792C32.0772 23.2209 30.5813 24.4667 29.2584 25.3167C27.8834 26.2021 26.5438 26.7605 25.0001 26.7605C23.4563 26.7605 22.1167 26.2 20.7397 25.3167C19.4188 24.4667 17.923 23.2188 16.0751 21.6813L11.5001 17.8688C11.1815 17.6036 10.9814 17.2227 10.9437 16.8099C10.906 16.3971 11.0338 15.9863 11.299 15.6677C11.5643 15.3492 11.9451 15.1491 12.3579 15.1114C12.7707 15.0737 13.1815 15.2015 13.5001 15.4667L18.0001 19.2146C19.9438 20.8334 21.2917 21.9542 22.4334 22.6875C23.5355 23.3959 24.2834 23.6355 25.0022 23.6355C25.7209 23.6355 26.4688 23.398 27.5709 22.6875C28.7105 21.9542 30.0605 20.8334 32.0043 19.2146L36.5022 15.4646C36.8207 15.1998 37.2315 15.0723 37.644 15.1102C38.0566 15.1481 38.4351 15.3482 38.7001 15.6667Z" fill="#EEA1CD"/>
</svg>
