<svg width="50" height="50" viewBox="0 0 50 50" fill="none" xmlns="http://www.w3.org/2000/svg">
<path d="M6.25 8.31875C6.25 7.17708 7.17708 6.25 8.31875 6.25H41.6812C42.8229 6.25 43.75 7.17708 43.75 8.31875V41.6812C43.7494 42.2297 43.5313 42.7556 43.1435 43.1435C42.7556 43.5313 42.2297 43.7494 41.6812 43.75H8.31875C7.77008 43.75 7.24389 43.532 6.85592 43.1441C6.46796 42.7561 6.25 42.2299 6.25 41.6812V8.31875ZM22.1292 17.5312C22.0038 17.4476 21.8581 17.3995 21.7075 17.3921C21.557 17.3847 21.4072 17.4183 21.2743 17.4893C21.1413 17.5603 21.0301 17.666 20.9524 17.7952C20.8748 17.9244 20.8336 18.0722 20.8333 18.2229V31.7771C20.8336 31.9278 20.8748 32.0756 20.9524 32.2048C21.0301 32.334 21.1413 32.4397 21.2743 32.5107C21.4072 32.5817 21.557 32.6153 21.7075 32.6079C21.8581 32.6005 22.0038 32.5524 22.1292 32.4688L32.2938 25.6938C32.4081 25.6177 32.5018 25.5145 32.5666 25.3935C32.6315 25.2725 32.6654 25.1373 32.6654 25C32.6654 24.8627 32.6315 24.7275 32.5666 24.6065C32.5018 24.4855 32.4081 24.3823 32.2938 24.3062L22.1292 17.5312Z" fill="#EEA1CD"/>
</svg>
